<svg height="558" width="720" xmlns="http://www.w3.org/2000/svg">
<rect height="558" fill="#555" width="720"></rect>
<text fill="#7f7" font-family="Courier New" font-size="12" xml:space="preserve">
<tspan x="10" y="26"></tspan>

<tspan x="10" y="42">[MODE_BUILD=buildApidoc] - 2018-06-04T08:21:07.461Z - npm-testing /home/travis/build/npmdoc/node\</tspan>
<tspan x="10" y="58">-npmdoc-sqlite3</tspan>

<tspan x="10" y="74"></tspan>

<tspan x="10" y="90"></tspan>

<tspan x="10" y="106">buildApidoc - merged test-report from file /home/travis/build/npmdoc/node-npmdoc-sqlite3/tmp/bui\</tspan>
<tspan x="10" y="122">ld/test-report.json</tspan>

<tspan x="10" y="138">&gt; server listening on http-port 49488</tspan>

<tspan x="10" y="154">[node test-case 1 of 1 passed] - testCase_buildApidoc_default</tspan>

<tspan x="10" y="170"></tspan>

<tspan x="10" y="186">buildApidoc - merged test-report from file /home/travis/build/npmdoc/node-npmdoc-sqlite3/tmp/bui\</tspan>
<tspan x="10" y="202">ld/test-report.json</tspan>

<tspan x="10" y="218"></tspan>

<tspan x="10" y="234">-------------------------------------------------------</tspan>

<tspan x="10" y="250">| test-report - buildApidoc - node - linux v6.14.2 - 2018-06-04T08:21:07.743Z</tspan>

<tspan x="10" y="266">|       6 ms            0 failed        1 passed      |</tspan>

<tspan x="10" y="282">-------------------------------------------------------</tspan>

<tspan x="10" y="298">| test-report - buildApp - node - linux v6.14.2 - 2018-06-04T08:20:38.096Z</tspan>

<tspan x="10" y="314">|   26472 ms            0 failed        8 passed      |</tspan>

<tspan x="10" y="330">-------------------------------------------------------</tspan>

<tspan x="10" y="346">| test-report - npmTest - browser - / - Mozilla/5.0 (X11; Linux x86_64) AppleWebKit/537.36 (KHTM\</tspan>
<tspan x="10" y="362">L, like Gecko) Chrome/58.0.3029.110 Electron/1.7.15 Safari/537.36 - 2018-06-04T08:20:49.886Z</tspan>

<tspan x="10" y="378">|      36 ms            0 failed        8 passed      |</tspan>

<tspan x="10" y="394">-------------------------------------------------------</tspan>

<tspan x="10" y="410"></tspan>

<tspan x="10" y="426">created test-report file /home/travis/build/npmdoc/node-npmdoc-sqlite3/tmp/build/test-report.htm\</tspan>
<tspan x="10" y="442">l</tspan>

<tspan x="10" y="458"></tspan>

<tspan x="10" y="474"></tspan>

<tspan x="10" y="490">buildApidoc - 0 failed tests</tspan>

<tspan x="10" y="506"></tspan>

<tspan x="10" y="522"></tspan>

<tspan x="10" y="538">[MODE_BUILD=buildApidoc] - 2018-06-04T08:21:09.294Z - EXIT_CODE - 0</tspan>

</text>
</svg>
